< SVG Editor Input Optimise Edit (experimental) Output
<svg xmlns:svg="http://www.w3.org/2000/svg" xmlns="http://www.w3.org/2000/svg" width="128.3" height="122.5" version="1"><defs><pattern patternUnits="userSpaceOnUse" width="20.1" height="21" patternTransform="matrix(0.6528718,0.7574684,-0.7574684,0.6528718,71.375789,185.74299)"><rect ry="0" rx="0" y="0" x="0" height="21" width="20.1" fill="#ffd400"/><path transform="matrix(0.9873554,-0.158522,0.158522,0.9873554,-207.43306,-94.091239)" d="M206 146L193.6 147.2 188.6 135.8 197.9 127.5 208.7 133.8 206 146z" fill="#b9d400"/></pattern><radialGradient cx="193" cy="98.7" fx="193" fy="98.7" r="0.2" gradientTransform="matrix(1,0,0,1.5711419,-59.070033,-1.8213685)" gradientUnits="userSpaceOnUse"/><linearGradient><stop offset="0" style="stop-color:#2dbb00;stop-opacity:1"/><stop offset="1" style="stop-color:#00d400;stop-opacity:0"/></linearGradient><radialGradient cx="193.8" cy="100.8" fx="193.8" fy="100.8" r="0.7" gradientTransform="matrix(1,0,0,2.8021293,-59.070033,-127.20955)" gradientUnits="userSpaceOnUse"/><radialGradient gradientUnits="userSpaceOnUse" gradientTransform="matrix(1,0,0,2.8021293,-59.070033,-127.20955)" cx="193.8" cy="100.8" fx="193.8" fy="100.8" r="0.7"/><radialGradient gradientUnits="userSpaceOnUse" gradientTransform="matrix(1,0,0,1.5711419,-59.070033,-1.8213685)" cx="193" cy="98.7" fx="193" fy="98.7" r="0.2"/><radialGradient gradientUnits="userSpaceOnUse" gradientTransform="matrix(0.4608997,-0.5989181,0.84015305,0.81104733,73.27589,303.5778)" cx="193" cy="98.7" fx="193" fy="98.7" r="0.2"/><radialGradient gradientUnits="userSpaceOnUse" gradientTransform="matrix(0.4608997,-0.5989181,1.4984117,1.4465017,6.2257639,238.85052)" cx="193.8" cy="100.8" fx="193.8" fy="100.8" r="0.7"/></defs><g transform="translate(-4.072925,-8.8350264)"><g transform="matrix(1.0776677,0,0,0.9338009,-214.84682,-177.08134)"><path d="m244.6 276.1c0 0 0.2-5.1-8.6-10.9-8.7-5.8-20.1-5.7-23.6-6-3.6-0.3 15.2-10.6 22.5-7.2 7.3 3.4-20-11.4-27.8-11-7.8 0.4 15.3-9.5 25-3.8-8.3-10.6-13.8-10.5-14.2-26.8 14.5 17.5 23.8 24.1 23.8 24.1 2.4-2.5-3.4-21.2-5.8-30.4-2.9-11.3 19.1 24.7 18.7 35 0 0 13-21.2 11.4-19.1-4.6 29.8 5.3 26.2 5.3 26.2l-26.8 30z" style="fill:#fff;stroke-linejoin:round;stroke-width:5.1;stroke:#000"/><path d="m308.1 313.3c18.8-19.7 11.9-30.3 1.1-43.3-10.8-13-35-37.5-56-15.8-21.1 21.8-3.6 47.1 10.7 61.7 13.7 14 24.8 17.8 44.2-2.6z" style="fill:#fff;stroke-linecap:round;stroke-linejoin:round;stroke-width:5.1;stroke:#000"/><path d="m245.3 268.1 2.7 1.2" fill="url(#radialGradient3003)"/><path d="m244.9 268 0.1-0.1 0.4 0.2" fill="url(#radialGradient3000)"/></g></g></svg>
